<svg width="1200" height="600" viewBox="0 0 1200 600" xmlns="http://www.w3.org/2000/svg">
  <defs>
    <linearGradient id="blueBand" x1="0" y1="0" x2="1" y2="1">
      <stop offset="0%" stop-color="#3A5486"/>
      <stop offset="100%" stop-color="#2C4066"/>
    </linearGradient>
    <linearGradient id="whiteBand" x1="0" y1="0" x2="1" y2="1">
      <stop offset="0%" stop-color="#F2ECDD"/>
      <stop offset="100%" stop-color="#E5DCC6"/>
    </linearGradient>
    <linearGradient id="redBand" x1="0" y1="0" x2="1" y2="1">
      <stop offset="0%" stop-color="#9C4A42"/>
      <stop offset="100%" stop-color="#7E3931"/>
    </linearGradient>
    <linearGradient id="foldShade" x1="0" y1="0" x2="0" y2="1">
      <stop offset="0%" stop-color="#000000" stop-opacity="0.16"/>
      <stop offset="50%" stop-color="#000000" stop-opacity="0"/>
      <stop offset="100%" stop-color="#000000" stop-opacity="0.14"/>
    </linearGradient>
  </defs>

  <rect x="0" y="0" width="1200" height="600" fill="#E5DCC6"/>

  <path d="M0 0 L 410 0 Q 425 150 405 300 Q 388 450 415 600 L 0 600 Z" fill="url(#blueBand)"/>
  <path d="M400 0 L 810 0 Q 795 150 815 300 Q 830 450 805 600 L 405 600 Q 388 450 405 300 Q 425 150 400 0 Z" fill="url(#whiteBand)"/>
  <path d="M800 0 L 1200 0 L 1200 600 L 805 600 Q 830 450 815 300 Q 795 150 800 0 Z" fill="url(#redBand)"/>

  <rect x="0" y="0" width="1200" height="600" fill="url(#foldShade)"/>

  <g opacity="0.10" stroke="#1a1a1a" stroke-width="1.5" fill="none">
    <path d="M0 60 Q 600 40 1200 60"/>
    <path d="M0 180 Q 600 155 1200 180"/>
    <path d="M0 320 Q 600 300 1200 320"/>
    <path d="M0 460 Q 600 440 1200 460"/>
  </g>
</svg>
